<svg width="180" height="38" viewBox="0 0 180 38" fill="none" xmlns="http://www.w3.org/2000/svg">
  <path d="M20.4 32.2c6.5 0 11.8-5.3 11.8-11.8S26.9 8.6 20.4 8.6 8.6 13.9 8.6 20.4s5.3 11.8 11.8 11.8z" fill="currentColor"/>
  <path d="M57.8 10.1h4.7l9.2 15.5V10.1h4.3v21.4h-4.6l-9.3-15.6v15.6h-4.3V10.1zM81.9 10.1h4.5v21.4h-4.5V10.1zM91.8 10.1h7.9c5.9 0 10.2 4.3 10.2 10.7 0 6.4-4.3 10.7-10.2 10.7h-7.9V10.1zm7.9 17.3c3.3 0 5.7-2.5 5.7-6.6 0-4.1-2.4-6.6-5.7-6.6h-3.4v13.2h3.4zM114.1 10.1h4.5v21.4h-4.5V10.1zM124.1 10.1h4.7l9.2 15.5V10.1h4.3v21.4h-4.6l-9.3-15.6v15.6h-4.3V10.1zM146.8 20.8c0-6.4 4.8-11.1 11.2-11.1 3.7 0 6.6 1.4 8.4 3.8l-3.3 2.5c-1.2-1.6-2.9-2.5-5.1-2.5-3.8 0-6.6 2.9-6.6 7.2s2.8 7.2 6.7 7.2c2.6 0 4.8-1.3 5.8-3.5h-5.8v-3.7h10.5v1.2c0 6.2-4.2 10.5-10.6 10.5-6.6 0-11.2-4.7-11.2-11.4z" fill="currentColor"/>
</svg>
